<mxfile host="65bd71144e">
    <diagram id="Sz8E3aAV7IVBwxAaBJQ_" name="目标与准则层与实施层">
        <mxGraphModel dx="881" dy="715" grid="1" gridSize="10" guides="1" tooltips="1" connect="1" arrows="1" fold="1" page="1" pageScale="1" pageWidth="827" pageHeight="1169" math="0" shadow="0">
            <root>
                <mxCell id="0"/>
                <mxCell id="1" parent="0"/>
                <mxCell id="4" value="" style="edgeStyle=none;html=1;" edge="1" parent="1" source="2" target="3">
                    <mxGeometry relative="1" as="geometry"/>
                </mxCell>
                <mxCell id="6" value="" style="edgeStyle=none;html=1;" edge="1" parent="1" source="2" target="5">
                    <mxGeometry relative="1" as="geometry"/>
                </mxCell>
                <mxCell id="7" value="" style="edgeStyle=none;html=1;" edge="1" parent="1" source="2" target="5">
                    <mxGeometry relative="1" as="geometry"/>
                </mxCell>
                <mxCell id="9" value="" style="edgeStyle=none;html=1;" edge="1" parent="1" source="2" target="8">
                    <mxGeometry relative="1" as="geometry"/>
                </mxCell>
                <mxCell id="2" value="无形资产收益A" style="shape=ext;double=1;rounded=0;whiteSpace=wrap;html=1;fillColor=none;" vertex="1" parent="1">
                    <mxGeometry x="320" y="100" width="120" height="80" as="geometry"/>
                </mxCell>
                <mxCell id="14" value="" style="edgeStyle=none;html=1;entryX=0.5;entryY=0;entryDx=0;entryDy=0;exitX=0.5;exitY=1;exitDx=0;exitDy=0;" edge="1" parent="1" source="3" target="10">
                    <mxGeometry relative="1" as="geometry"/>
                </mxCell>
                <mxCell id="16" value="" style="edgeStyle=none;html=1;entryX=0.5;entryY=0;entryDx=0;entryDy=0;exitX=0.5;exitY=1;exitDx=0;exitDy=0;" edge="1" parent="1" source="3" target="15">
                    <mxGeometry relative="1" as="geometry"/>
                </mxCell>
                <mxCell id="25" style="edgeStyle=none;html=1;exitX=0.5;exitY=1;exitDx=0;exitDy=0;entryX=0.5;entryY=0;entryDx=0;entryDy=0;" edge="1" parent="1" source="3" target="19">
                    <mxGeometry relative="1" as="geometry"/>
                </mxCell>
                <mxCell id="27" style="edgeStyle=none;html=1;exitX=0.5;exitY=1;exitDx=0;exitDy=0;entryX=0.5;entryY=0;entryDx=0;entryDy=0;" edge="1" parent="1" source="3" target="17">
                    <mxGeometry relative="1" as="geometry"/>
                </mxCell>
                <mxCell id="3" value="价格提高B1" style="shape=ext;double=1;rounded=0;whiteSpace=wrap;html=1;fillColor=none;" vertex="1" parent="1">
                    <mxGeometry x="130" y="240" width="120" height="80" as="geometry"/>
                </mxCell>
                <mxCell id="20" value="" style="edgeStyle=none;html=1;entryX=0.5;entryY=0;entryDx=0;entryDy=0;" edge="1" parent="1" target="19">
                    <mxGeometry relative="1" as="geometry">
                        <mxPoint x="570" y="320" as="sourcePoint"/>
                    </mxGeometry>
                </mxCell>
                <mxCell id="22" style="edgeStyle=none;html=1;exitX=0.5;exitY=1;exitDx=0;exitDy=0;entryX=0.5;entryY=0;entryDx=0;entryDy=0;" edge="1" parent="1" source="5" target="10">
                    <mxGeometry relative="1" as="geometry">
                        <mxPoint x="70" y="390" as="targetPoint"/>
                    </mxGeometry>
                </mxCell>
                <mxCell id="29" style="edgeStyle=none;html=1;exitX=0.5;exitY=1;exitDx=0;exitDy=0;entryX=0.5;entryY=0;entryDx=0;entryDy=0;" edge="1" parent="1" source="5" target="15">
                    <mxGeometry relative="1" as="geometry"/>
                </mxCell>
                <mxCell id="30" style="edgeStyle=none;html=1;exitX=0.5;exitY=1;exitDx=0;exitDy=0;entryX=0.5;entryY=0;entryDx=0;entryDy=0;" edge="1" parent="1" source="5" target="17">
                    <mxGeometry relative="1" as="geometry"/>
                </mxCell>
                <mxCell id="5" value="销量增长B3" style="shape=ext;double=1;rounded=0;whiteSpace=wrap;html=1;fillColor=none;" vertex="1" parent="1">
                    <mxGeometry x="510" y="240" width="120" height="80" as="geometry"/>
                </mxCell>
                <mxCell id="18" value="" style="edgeStyle=none;html=1;exitX=0.5;exitY=1;exitDx=0;exitDy=0;entryX=0.5;entryY=0;entryDx=0;entryDy=0;" edge="1" parent="1" source="8" target="17">
                    <mxGeometry relative="1" as="geometry"/>
                </mxCell>
                <mxCell id="21" style="edgeStyle=none;html=1;exitX=0.5;exitY=1;exitDx=0;exitDy=0;" edge="1" parent="1" source="8">
                    <mxGeometry relative="1" as="geometry">
                        <mxPoint x="100" y="390" as="targetPoint"/>
                    </mxGeometry>
                </mxCell>
                <mxCell id="26" style="edgeStyle=none;html=1;exitX=0.5;exitY=1;exitDx=0;exitDy=0;entryX=0.5;entryY=0;entryDx=0;entryDy=0;" edge="1" parent="1" source="8" target="19">
                    <mxGeometry relative="1" as="geometry"/>
                </mxCell>
                <mxCell id="28" style="edgeStyle=none;html=1;exitX=0.5;exitY=1;exitDx=0;exitDy=0;entryX=0.5;entryY=0;entryDx=0;entryDy=0;" edge="1" parent="1" source="8" target="15">
                    <mxGeometry relative="1" as="geometry"/>
                </mxCell>
                <mxCell id="8" value="成本减少B2" style="shape=ext;double=1;rounded=0;whiteSpace=wrap;html=1;fillColor=none;" vertex="1" parent="1">
                    <mxGeometry x="320" y="240" width="120" height="80" as="geometry"/>
                </mxCell>
                <mxCell id="10" value="品牌无形资产C1" style="shape=ext;double=1;rounded=0;whiteSpace=wrap;html=1;fillColor=none;" vertex="1" parent="1">
                    <mxGeometry x="30" y="390" width="120" height="80" as="geometry"/>
                </mxCell>
                <mxCell id="15" value="特许经营权C2" style="shape=ext;double=1;rounded=0;whiteSpace=wrap;html=1;fillColor=none;" vertex="1" parent="1">
                    <mxGeometry x="220" y="390" width="120" height="80" as="geometry"/>
                </mxCell>
                <mxCell id="17" value="研发水平C3" style="shape=ext;double=1;rounded=0;whiteSpace=wrap;html=1;fillColor=none;" vertex="1" parent="1">
                    <mxGeometry x="400" y="390" width="120" height="80" as="geometry"/>
                </mxCell>
                <mxCell id="19" value="客户关系C4" style="shape=ext;double=1;rounded=0;whiteSpace=wrap;html=1;fillColor=none;" vertex="1" parent="1">
                    <mxGeometry x="590" y="390" width="120" height="80" as="geometry"/>
                </mxCell>
                <mxCell id="24" style="edgeStyle=none;html=1;exitX=1;exitY=0;exitDx=0;exitDy=0;entryX=0.5;entryY=0;entryDx=0;entryDy=0;" edge="1" parent="1" source="10" target="10">
                    <mxGeometry relative="1" as="geometry"/>
                </mxCell>
            </root>
        </mxGraphModel>
    </diagram>
    <diagram id="WNpsqzquleOEaUU3kBCs" name="目标 层">
        <mxGraphModel dx="837" dy="679" grid="1" gridSize="10" guides="1" tooltips="1" connect="1" arrows="1" fold="1" page="1" pageScale="1" pageWidth="827" pageHeight="1169" math="0" shadow="0">
            <root>
                <mxCell id="0"/>
                <mxCell id="1" parent="0"/>
                <mxCell id="VO8rGZmWO6D1_c0HMUhl-1" value="" style="shape=table;html=1;whiteSpace=wrap;startSize=0;container=1;collapsible=0;childLayout=tableLayout;fillColor=none;" vertex="1" parent="1">
                    <mxGeometry x="90" y="190" width="340" height="226.67" as="geometry"/>
                </mxCell>
                <mxCell id="VO8rGZmWO6D1_c0HMUhl-2" value="" style="shape=tableRow;horizontal=0;startSize=0;swimlaneHead=0;swimlaneBody=0;top=0;left=0;bottom=0;right=0;collapsible=0;dropTarget=0;fillColor=none;points=[[0,0.5],[1,0.5]];portConstraint=eastwest;" vertex="1" parent="VO8rGZmWO6D1_c0HMUhl-1">
                    <mxGeometry width="340" height="57" as="geometry"/>
                </mxCell>
                <mxCell id="VO8rGZmWO6D1_c0HMUhl-28" value="无形资产收益A" style="shape=partialRectangle;html=1;whiteSpace=wrap;connectable=0;fillColor=none;top=0;left=0;bottom=0;right=0;overflow=hidden;" vertex="1" parent="VO8rGZmWO6D1_c0HMUhl-2">
                    <mxGeometry width="85" height="57" as="geometry">
                        <mxRectangle width="85" height="57" as="alternateBounds"/>
                    </mxGeometry>
                </mxCell>
                <mxCell id="VO8rGZmWO6D1_c0HMUhl-3" value="价格提高B1" style="shape=partialRectangle;html=1;whiteSpace=wrap;connectable=0;fillColor=none;top=0;left=0;bottom=0;right=0;overflow=hidden;" vertex="1" parent="VO8rGZmWO6D1_c0HMUhl-2">
                    <mxGeometry x="85" width="85" height="57" as="geometry">
                        <mxRectangle width="85" height="57" as="alternateBounds"/>
                    </mxGeometry>
                </mxCell>
                <mxCell id="VO8rGZmWO6D1_c0HMUhl-4" value="成本减少B2" style="shape=partialRectangle;html=1;whiteSpace=wrap;connectable=0;fillColor=none;top=0;left=0;bottom=0;right=0;overflow=hidden;" vertex="1" parent="VO8rGZmWO6D1_c0HMUhl-2">
                    <mxGeometry x="170" width="85" height="57" as="geometry">
                        <mxRectangle width="85" height="57" as="alternateBounds"/>
                    </mxGeometry>
                </mxCell>
                <mxCell id="VO8rGZmWO6D1_c0HMUhl-5" value="销量增长B3" style="shape=partialRectangle;html=1;whiteSpace=wrap;connectable=0;fillColor=none;top=0;left=0;bottom=0;right=0;overflow=hidden;" vertex="1" parent="VO8rGZmWO6D1_c0HMUhl-2">
                    <mxGeometry x="255" width="85" height="57" as="geometry">
                        <mxRectangle width="85" height="57" as="alternateBounds"/>
                    </mxGeometry>
                </mxCell>
                <mxCell id="VO8rGZmWO6D1_c0HMUhl-6" value="" style="shape=tableRow;horizontal=0;startSize=0;swimlaneHead=0;swimlaneBody=0;top=0;left=0;bottom=0;right=0;collapsible=0;dropTarget=0;fillColor=none;points=[[0,0.5],[1,0.5]];portConstraint=eastwest;" vertex="1" parent="VO8rGZmWO6D1_c0HMUhl-1">
                    <mxGeometry y="57" width="340" height="56" as="geometry"/>
                </mxCell>
                <mxCell id="VO8rGZmWO6D1_c0HMUhl-29" value="价格提高B1" style="shape=partialRectangle;html=1;whiteSpace=wrap;connectable=0;fillColor=none;top=0;left=0;bottom=0;right=0;overflow=hidden;" vertex="1" parent="VO8rGZmWO6D1_c0HMUhl-6">
                    <mxGeometry width="85" height="56" as="geometry">
                        <mxRectangle width="85" height="56" as="alternateBounds"/>
                    </mxGeometry>
                </mxCell>
                <mxCell id="VO8rGZmWO6D1_c0HMUhl-7" value="1" style="shape=partialRectangle;html=1;whiteSpace=wrap;connectable=0;fillColor=none;top=0;left=0;bottom=0;right=0;overflow=hidden;" vertex="1" parent="VO8rGZmWO6D1_c0HMUhl-6">
                    <mxGeometry x="85" width="85" height="56" as="geometry">
                        <mxRectangle width="85" height="56" as="alternateBounds"/>
                    </mxGeometry>
                </mxCell>
                <mxCell id="VO8rGZmWO6D1_c0HMUhl-8" value="3" style="shape=partialRectangle;html=1;whiteSpace=wrap;connectable=0;fillColor=none;top=0;left=0;bottom=0;right=0;overflow=hidden;" vertex="1" parent="VO8rGZmWO6D1_c0HMUhl-6">
                    <mxGeometry x="170" width="85" height="56" as="geometry">
                        <mxRectangle width="85" height="56" as="alternateBounds"/>
                    </mxGeometry>
                </mxCell>
                <mxCell id="VO8rGZmWO6D1_c0HMUhl-9" value="2" style="shape=partialRectangle;html=1;whiteSpace=wrap;connectable=0;fillColor=none;top=0;left=0;bottom=0;right=0;overflow=hidden;" vertex="1" parent="VO8rGZmWO6D1_c0HMUhl-6">
                    <mxGeometry x="255" width="85" height="56" as="geometry">
                        <mxRectangle width="85" height="56" as="alternateBounds"/>
                    </mxGeometry>
                </mxCell>
                <mxCell id="VO8rGZmWO6D1_c0HMUhl-31" style="shape=tableRow;horizontal=0;startSize=0;swimlaneHead=0;swimlaneBody=0;top=0;left=0;bottom=0;right=0;collapsible=0;dropTarget=0;fillColor=none;points=[[0,0.5],[1,0.5]];portConstraint=eastwest;" vertex="1" parent="VO8rGZmWO6D1_c0HMUhl-1">
                    <mxGeometry y="113" width="340" height="57" as="geometry"/>
                </mxCell>
                <mxCell id="VO8rGZmWO6D1_c0HMUhl-32" value="成本减少B2" style="shape=partialRectangle;html=1;whiteSpace=wrap;connectable=0;fillColor=none;top=0;left=0;bottom=0;right=0;overflow=hidden;" vertex="1" parent="VO8rGZmWO6D1_c0HMUhl-31">
                    <mxGeometry width="85" height="57" as="geometry">
                        <mxRectangle width="85" height="57" as="alternateBounds"/>
                    </mxGeometry>
                </mxCell>
                <mxCell id="VO8rGZmWO6D1_c0HMUhl-33" value="1/3" style="shape=partialRectangle;html=1;whiteSpace=wrap;connectable=0;fillColor=none;top=0;left=0;bottom=0;right=0;overflow=hidden;" vertex="1" parent="VO8rGZmWO6D1_c0HMUhl-31">
                    <mxGeometry x="85" width="85" height="57" as="geometry">
                        <mxRectangle width="85" height="57" as="alternateBounds"/>
                    </mxGeometry>
                </mxCell>
                <mxCell id="VO8rGZmWO6D1_c0HMUhl-34" value="1" style="shape=partialRectangle;html=1;whiteSpace=wrap;connectable=0;fillColor=none;top=0;left=0;bottom=0;right=0;overflow=hidden;" vertex="1" parent="VO8rGZmWO6D1_c0HMUhl-31">
                    <mxGeometry x="170" width="85" height="57" as="geometry">
                        <mxRectangle width="85" height="57" as="alternateBounds"/>
                    </mxGeometry>
                </mxCell>
                <mxCell id="VO8rGZmWO6D1_c0HMUhl-35" value="1/2" style="shape=partialRectangle;html=1;whiteSpace=wrap;connectable=0;fillColor=none;top=0;left=0;bottom=0;right=0;overflow=hidden;pointerEvents=1;" vertex="1" parent="VO8rGZmWO6D1_c0HMUhl-31">
                    <mxGeometry x="255" width="85" height="57" as="geometry">
                        <mxRectangle width="85" height="57" as="alternateBounds"/>
                    </mxGeometry>
                </mxCell>
                <mxCell id="VO8rGZmWO6D1_c0HMUhl-10" value="" style="shape=tableRow;horizontal=0;startSize=0;swimlaneHead=0;swimlaneBody=0;top=0;left=0;bottom=0;right=0;collapsible=0;dropTarget=0;fillColor=none;points=[[0,0.5],[1,0.5]];portConstraint=eastwest;" vertex="1" parent="VO8rGZmWO6D1_c0HMUhl-1">
                    <mxGeometry y="170" width="340" height="57" as="geometry"/>
                </mxCell>
                <mxCell id="VO8rGZmWO6D1_c0HMUhl-30" value="销量增长B3" style="shape=partialRectangle;html=1;whiteSpace=wrap;connectable=0;fillColor=none;top=0;left=0;bottom=0;right=0;overflow=hidden;" vertex="1" parent="VO8rGZmWO6D1_c0HMUhl-10">
                    <mxGeometry width="85" height="57" as="geometry">
                        <mxRectangle width="85" height="57" as="alternateBounds"/>
                    </mxGeometry>
                </mxCell>
                <mxCell id="VO8rGZmWO6D1_c0HMUhl-12" value="1/2" style="shape=partialRectangle;html=1;whiteSpace=wrap;connectable=0;fillColor=none;top=0;left=0;bottom=0;right=0;overflow=hidden;" vertex="1" parent="VO8rGZmWO6D1_c0HMUhl-10">
                    <mxGeometry x="85" width="85" height="57" as="geometry">
                        <mxRectangle width="85" height="57" as="alternateBounds"/>
                    </mxGeometry>
                </mxCell>
                <mxCell id="VO8rGZmWO6D1_c0HMUhl-11" value="2" style="shape=partialRectangle;html=1;whiteSpace=wrap;connectable=0;fillColor=none;top=0;left=0;bottom=0;right=0;overflow=hidden;" vertex="1" parent="VO8rGZmWO6D1_c0HMUhl-10">
                    <mxGeometry x="170" width="85" height="57" as="geometry">
                        <mxRectangle width="85" height="57" as="alternateBounds"/>
                    </mxGeometry>
                </mxCell>
                <mxCell id="VO8rGZmWO6D1_c0HMUhl-13" value="1" style="shape=partialRectangle;html=1;whiteSpace=wrap;connectable=0;fillColor=none;top=0;left=0;bottom=0;right=0;overflow=hidden;pointerEvents=1;" vertex="1" parent="VO8rGZmWO6D1_c0HMUhl-10">
                    <mxGeometry x="255" width="85" height="57" as="geometry">
                        <mxRectangle width="85" height="57" as="alternateBounds"/>
                    </mxGeometry>
                </mxCell>
            </root>
        </mxGraphModel>
    </diagram>
    <diagram id="l-PaVbxfye54yOXKZnMa" name="准则与实施1">
        <mxGraphModel dx="698" dy="566" grid="1" gridSize="10" guides="1" tooltips="1" connect="1" arrows="1" fold="1" page="1" pageScale="1" pageWidth="827" pageHeight="1169" math="0" shadow="0">
            <root>
                <mxCell id="0"/>
                <mxCell id="1" parent="0"/>
                <mxCell id="giGC7gWwPaC7XDFuGhNl-1" value="" style="shape=table;html=1;whiteSpace=wrap;startSize=0;container=1;collapsible=0;childLayout=tableLayout;fillColor=none;" vertex="1" parent="1">
                    <mxGeometry x="160" y="110" width="425" height="283.66999999999996" as="geometry"/>
                </mxCell>
                <mxCell id="giGC7gWwPaC7XDFuGhNl-2" value="" style="shape=tableRow;horizontal=0;startSize=0;swimlaneHead=0;swimlaneBody=0;top=0;left=0;bottom=0;right=0;collapsible=0;dropTarget=0;fillColor=none;points=[[0,0.5],[1,0.5]];portConstraint=eastwest;" vertex="1" parent="giGC7gWwPaC7XDFuGhNl-1">
                    <mxGeometry width="425" height="57" as="geometry"/>
                </mxCell>
                <mxCell id="giGC7gWwPaC7XDFuGhNl-3" value="价格提高B1" style="shape=partialRectangle;html=1;whiteSpace=wrap;connectable=0;fillColor=none;top=0;left=0;bottom=0;right=0;overflow=hidden;" vertex="1" parent="giGC7gWwPaC7XDFuGhNl-2">
                    <mxGeometry width="85" height="57" as="geometry">
                        <mxRectangle width="85" height="57" as="alternateBounds"/>
                    </mxGeometry>
                </mxCell>
                <mxCell id="giGC7gWwPaC7XDFuGhNl-32" value="品牌无形资产C1" style="shape=partialRectangle;html=1;whiteSpace=wrap;connectable=0;fillColor=none;top=0;left=0;bottom=0;right=0;overflow=hidden;" vertex="1" parent="giGC7gWwPaC7XDFuGhNl-2">
                    <mxGeometry x="85" width="85" height="57" as="geometry">
                        <mxRectangle width="85" height="57" as="alternateBounds"/>
                    </mxGeometry>
                </mxCell>
                <mxCell id="giGC7gWwPaC7XDFuGhNl-4" value="特许经营权C2" style="shape=partialRectangle;html=1;whiteSpace=wrap;connectable=0;fillColor=none;top=0;left=0;bottom=0;right=0;overflow=hidden;" vertex="1" parent="giGC7gWwPaC7XDFuGhNl-2">
                    <mxGeometry x="170" width="85" height="57" as="geometry">
                        <mxRectangle width="85" height="57" as="alternateBounds"/>
                    </mxGeometry>
                </mxCell>
                <mxCell id="giGC7gWwPaC7XDFuGhNl-5" value="研发水平C3" style="shape=partialRectangle;html=1;whiteSpace=wrap;connectable=0;fillColor=none;top=0;left=0;bottom=0;right=0;overflow=hidden;" vertex="1" parent="giGC7gWwPaC7XDFuGhNl-2">
                    <mxGeometry x="255" width="85" height="57" as="geometry">
                        <mxRectangle width="85" height="57" as="alternateBounds"/>
                    </mxGeometry>
                </mxCell>
                <mxCell id="giGC7gWwPaC7XDFuGhNl-6" value="客户关系C4" style="shape=partialRectangle;html=1;whiteSpace=wrap;connectable=0;fillColor=none;top=0;left=0;bottom=0;right=0;overflow=hidden;" vertex="1" parent="giGC7gWwPaC7XDFuGhNl-2">
                    <mxGeometry x="340" width="85" height="57" as="geometry">
                        <mxRectangle width="85" height="57" as="alternateBounds"/>
                    </mxGeometry>
                </mxCell>
                <mxCell id="giGC7gWwPaC7XDFuGhNl-7" value="" style="shape=tableRow;horizontal=0;startSize=0;swimlaneHead=0;swimlaneBody=0;top=0;left=0;bottom=0;right=0;collapsible=0;dropTarget=0;fillColor=none;points=[[0,0.5],[1,0.5]];portConstraint=eastwest;" vertex="1" parent="giGC7gWwPaC7XDFuGhNl-1">
                    <mxGeometry y="57" width="425" height="56" as="geometry"/>
                </mxCell>
                <mxCell id="giGC7gWwPaC7XDFuGhNl-8" value="&#10;&lt;span style=&quot;color: rgb(240, 240, 240); font-family: Helvetica; font-size: 12px; font-style: normal; font-variant-ligatures: normal; font-variant-caps: normal; font-weight: 400; letter-spacing: normal; orphans: 2; text-align: center; text-indent: 0px; text-transform: none; widows: 2; word-spacing: 0px; -webkit-text-stroke-width: 0px; background-color: rgb(42, 37, 47); text-decoration-thickness: initial; text-decoration-style: initial; text-decoration-color: initial; float: none; display: inline !important;&quot;&gt;品牌无形资产C1&lt;/span&gt;&#10;&#10;" style="shape=partialRectangle;html=1;whiteSpace=wrap;connectable=0;fillColor=none;top=0;left=0;bottom=0;right=0;overflow=hidden;" vertex="1" parent="giGC7gWwPaC7XDFuGhNl-7">
                    <mxGeometry width="85" height="56" as="geometry">
                        <mxRectangle width="85" height="56" as="alternateBounds"/>
                    </mxGeometry>
                </mxCell>
                <mxCell id="giGC7gWwPaC7XDFuGhNl-33" value="1" style="shape=partialRectangle;html=1;whiteSpace=wrap;connectable=0;fillColor=none;top=0;left=0;bottom=0;right=0;overflow=hidden;" vertex="1" parent="giGC7gWwPaC7XDFuGhNl-7">
                    <mxGeometry x="85" width="85" height="56" as="geometry">
                        <mxRectangle width="85" height="56" as="alternateBounds"/>
                    </mxGeometry>
                </mxCell>
                <mxCell id="giGC7gWwPaC7XDFuGhNl-9" value="2" style="shape=partialRectangle;html=1;whiteSpace=wrap;connectable=0;fillColor=none;top=0;left=0;bottom=0;right=0;overflow=hidden;" vertex="1" parent="giGC7gWwPaC7XDFuGhNl-7">
                    <mxGeometry x="170" width="85" height="56" as="geometry">
                        <mxRectangle width="85" height="56" as="alternateBounds"/>
                    </mxGeometry>
                </mxCell>
                <mxCell id="giGC7gWwPaC7XDFuGhNl-10" value="4" style="shape=partialRectangle;html=1;whiteSpace=wrap;connectable=0;fillColor=none;top=0;left=0;bottom=0;right=0;overflow=hidden;" vertex="1" parent="giGC7gWwPaC7XDFuGhNl-7">
                    <mxGeometry x="255" width="85" height="56" as="geometry">
                        <mxRectangle width="85" height="56" as="alternateBounds"/>
                    </mxGeometry>
                </mxCell>
                <mxCell id="giGC7gWwPaC7XDFuGhNl-11" value="6" style="shape=partialRectangle;html=1;whiteSpace=wrap;connectable=0;fillColor=none;top=0;left=0;bottom=0;right=0;overflow=hidden;" vertex="1" parent="giGC7gWwPaC7XDFuGhNl-7">
                    <mxGeometry x="340" width="85" height="56" as="geometry">
                        <mxRectangle width="85" height="56" as="alternateBounds"/>
                    </mxGeometry>
                </mxCell>
                <mxCell id="giGC7gWwPaC7XDFuGhNl-12" style="shape=tableRow;horizontal=0;startSize=0;swimlaneHead=0;swimlaneBody=0;top=0;left=0;bottom=0;right=0;collapsible=0;dropTarget=0;fillColor=none;points=[[0,0.5],[1,0.5]];portConstraint=eastwest;" vertex="1" parent="giGC7gWwPaC7XDFuGhNl-1">
                    <mxGeometry y="113" width="425" height="57" as="geometry"/>
                </mxCell>
                <mxCell id="giGC7gWwPaC7XDFuGhNl-13" value="特许经营权C2" style="shape=partialRectangle;html=1;whiteSpace=wrap;connectable=0;fillColor=none;top=0;left=0;bottom=0;right=0;overflow=hidden;" vertex="1" parent="giGC7gWwPaC7XDFuGhNl-12">
                    <mxGeometry width="85" height="57" as="geometry">
                        <mxRectangle width="85" height="57" as="alternateBounds"/>
                    </mxGeometry>
                </mxCell>
                <mxCell id="giGC7gWwPaC7XDFuGhNl-34" value="1/2" style="shape=partialRectangle;html=1;whiteSpace=wrap;connectable=0;fillColor=none;top=0;left=0;bottom=0;right=0;overflow=hidden;" vertex="1" parent="giGC7gWwPaC7XDFuGhNl-12">
                    <mxGeometry x="85" width="85" height="57" as="geometry">
                        <mxRectangle width="85" height="57" as="alternateBounds"/>
                    </mxGeometry>
                </mxCell>
                <mxCell id="giGC7gWwPaC7XDFuGhNl-14" value="1" style="shape=partialRectangle;html=1;whiteSpace=wrap;connectable=0;fillColor=none;top=0;left=0;bottom=0;right=0;overflow=hidden;" vertex="1" parent="giGC7gWwPaC7XDFuGhNl-12">
                    <mxGeometry x="170" width="85" height="57" as="geometry">
                        <mxRectangle width="85" height="57" as="alternateBounds"/>
                    </mxGeometry>
                </mxCell>
                <mxCell id="giGC7gWwPaC7XDFuGhNl-15" value="2" style="shape=partialRectangle;html=1;whiteSpace=wrap;connectable=0;fillColor=none;top=0;left=0;bottom=0;right=0;overflow=hidden;" vertex="1" parent="giGC7gWwPaC7XDFuGhNl-12">
                    <mxGeometry x="255" width="85" height="57" as="geometry">
                        <mxRectangle width="85" height="57" as="alternateBounds"/>
                    </mxGeometry>
                </mxCell>
                <mxCell id="giGC7gWwPaC7XDFuGhNl-16" value="3" style="shape=partialRectangle;html=1;whiteSpace=wrap;connectable=0;fillColor=none;top=0;left=0;bottom=0;right=0;overflow=hidden;pointerEvents=1;" vertex="1" parent="giGC7gWwPaC7XDFuGhNl-12">
                    <mxGeometry x="340" width="85" height="57" as="geometry">
                        <mxRectangle width="85" height="57" as="alternateBounds"/>
                    </mxGeometry>
                </mxCell>
                <mxCell id="giGC7gWwPaC7XDFuGhNl-17" value="" style="shape=tableRow;horizontal=0;startSize=0;swimlaneHead=0;swimlaneBody=0;top=0;left=0;bottom=0;right=0;collapsible=0;dropTarget=0;fillColor=none;points=[[0,0.5],[1,0.5]];portConstraint=eastwest;" vertex="1" parent="giGC7gWwPaC7XDFuGhNl-1">
                    <mxGeometry y="170" width="425" height="57" as="geometry"/>
                </mxCell>
                <mxCell id="giGC7gWwPaC7XDFuGhNl-18" value="研发水平C3" style="shape=partialRectangle;html=1;whiteSpace=wrap;connectable=0;fillColor=none;top=0;left=0;bottom=0;right=0;overflow=hidden;" vertex="1" parent="giGC7gWwPaC7XDFuGhNl-17">
                    <mxGeometry width="85" height="57" as="geometry">
                        <mxRectangle width="85" height="57" as="alternateBounds"/>
                    </mxGeometry>
                </mxCell>
                <mxCell id="giGC7gWwPaC7XDFuGhNl-35" value="1/4" style="shape=partialRectangle;html=1;whiteSpace=wrap;connectable=0;fillColor=none;top=0;left=0;bottom=0;right=0;overflow=hidden;" vertex="1" parent="giGC7gWwPaC7XDFuGhNl-17">
                    <mxGeometry x="85" width="85" height="57" as="geometry">
                        <mxRectangle width="85" height="57" as="alternateBounds"/>
                    </mxGeometry>
                </mxCell>
                <mxCell id="giGC7gWwPaC7XDFuGhNl-19" value="1/2" style="shape=partialRectangle;html=1;whiteSpace=wrap;connectable=0;fillColor=none;top=0;left=0;bottom=0;right=0;overflow=hidden;" vertex="1" parent="giGC7gWwPaC7XDFuGhNl-17">
                    <mxGeometry x="170" width="85" height="57" as="geometry">
                        <mxRectangle width="85" height="57" as="alternateBounds"/>
                    </mxGeometry>
                </mxCell>
                <mxCell id="giGC7gWwPaC7XDFuGhNl-20" value="1" style="shape=partialRectangle;html=1;whiteSpace=wrap;connectable=0;fillColor=none;top=0;left=0;bottom=0;right=0;overflow=hidden;" vertex="1" parent="giGC7gWwPaC7XDFuGhNl-17">
                    <mxGeometry x="255" width="85" height="57" as="geometry">
                        <mxRectangle width="85" height="57" as="alternateBounds"/>
                    </mxGeometry>
                </mxCell>
                <mxCell id="giGC7gWwPaC7XDFuGhNl-21" value="2" style="shape=partialRectangle;html=1;whiteSpace=wrap;connectable=0;fillColor=none;top=0;left=0;bottom=0;right=0;overflow=hidden;pointerEvents=1;" vertex="1" parent="giGC7gWwPaC7XDFuGhNl-17">
                    <mxGeometry x="340" width="85" height="57" as="geometry">
                        <mxRectangle width="85" height="57" as="alternateBounds"/>
                    </mxGeometry>
                </mxCell>
                <mxCell id="giGC7gWwPaC7XDFuGhNl-22" style="shape=tableRow;horizontal=0;startSize=0;swimlaneHead=0;swimlaneBody=0;top=0;left=0;bottom=0;right=0;collapsible=0;dropTarget=0;fillColor=none;points=[[0,0.5],[1,0.5]];portConstraint=eastwest;" vertex="1" parent="giGC7gWwPaC7XDFuGhNl-1">
                    <mxGeometry y="227" width="425" height="57" as="geometry"/>
                </mxCell>
                <mxCell id="giGC7gWwPaC7XDFuGhNl-23" value="客户关系C4" style="shape=partialRectangle;html=1;whiteSpace=wrap;connectable=0;fillColor=none;top=0;left=0;bottom=0;right=0;overflow=hidden;" vertex="1" parent="giGC7gWwPaC7XDFuGhNl-22">
                    <mxGeometry width="85" height="57" as="geometry">
                        <mxRectangle width="85" height="57" as="alternateBounds"/>
                    </mxGeometry>
                </mxCell>
                <mxCell id="giGC7gWwPaC7XDFuGhNl-36" value="1/6" style="shape=partialRectangle;html=1;whiteSpace=wrap;connectable=0;fillColor=none;top=0;left=0;bottom=0;right=0;overflow=hidden;" vertex="1" parent="giGC7gWwPaC7XDFuGhNl-22">
                    <mxGeometry x="85" width="85" height="57" as="geometry">
                        <mxRectangle width="85" height="57" as="alternateBounds"/>
                    </mxGeometry>
                </mxCell>
                <mxCell id="giGC7gWwPaC7XDFuGhNl-24" value="1/3" style="shape=partialRectangle;html=1;whiteSpace=wrap;connectable=0;fillColor=none;top=0;left=0;bottom=0;right=0;overflow=hidden;" vertex="1" parent="giGC7gWwPaC7XDFuGhNl-22">
                    <mxGeometry x="170" width="85" height="57" as="geometry">
                        <mxRectangle width="85" height="57" as="alternateBounds"/>
                    </mxGeometry>
                </mxCell>
                <mxCell id="giGC7gWwPaC7XDFuGhNl-25" value="1/2" style="shape=partialRectangle;html=1;whiteSpace=wrap;connectable=0;fillColor=none;top=0;left=0;bottom=0;right=0;overflow=hidden;" vertex="1" parent="giGC7gWwPaC7XDFuGhNl-22">
                    <mxGeometry x="255" width="85" height="57" as="geometry">
                        <mxRectangle width="85" height="57" as="alternateBounds"/>
                    </mxGeometry>
                </mxCell>
                <mxCell id="giGC7gWwPaC7XDFuGhNl-26" value="1" style="shape=partialRectangle;html=1;whiteSpace=wrap;connectable=0;fillColor=none;top=0;left=0;bottom=0;right=0;overflow=hidden;pointerEvents=1;" vertex="1" parent="giGC7gWwPaC7XDFuGhNl-22">
                    <mxGeometry x="340" width="85" height="57" as="geometry">
                        <mxRectangle width="85" height="57" as="alternateBounds"/>
                    </mxGeometry>
                </mxCell>
            </root>
        </mxGraphModel>
    </diagram>
    <diagram id="gU5MhAZAcYAsGZtEeraG" name="准则与实施2">
        <mxGraphModel dx="577" dy="468" grid="1" gridSize="10" guides="1" tooltips="1" connect="1" arrows="1" fold="1" page="1" pageScale="1" pageWidth="827" pageHeight="1169" math="0" shadow="0">
            <root>
                <mxCell id="0"/>
                <mxCell id="1" parent="0"/>
                <mxCell id="SXtA1OtQDqH__FQEsR0t-1" value="" style="shape=table;html=1;whiteSpace=wrap;startSize=0;container=1;collapsible=0;childLayout=tableLayout;fillColor=none;" vertex="1" parent="1">
                    <mxGeometry x="150" y="120" width="425" height="283.66999999999996" as="geometry"/>
                </mxCell>
                <mxCell id="SXtA1OtQDqH__FQEsR0t-2" value="" style="shape=tableRow;horizontal=0;startSize=0;swimlaneHead=0;swimlaneBody=0;top=0;left=0;bottom=0;right=0;collapsible=0;dropTarget=0;fillColor=none;points=[[0,0.5],[1,0.5]];portConstraint=eastwest;" vertex="1" parent="SXtA1OtQDqH__FQEsR0t-1">
                    <mxGeometry width="425" height="57" as="geometry"/>
                </mxCell>
                <mxCell id="SXtA1OtQDqH__FQEsR0t-3" value="成本减少B2" style="shape=partialRectangle;html=1;whiteSpace=wrap;connectable=0;fillColor=none;top=0;left=0;bottom=0;right=0;overflow=hidden;" vertex="1" parent="SXtA1OtQDqH__FQEsR0t-2">
                    <mxGeometry width="85" height="57" as="geometry">
                        <mxRectangle width="85" height="57" as="alternateBounds"/>
                    </mxGeometry>
                </mxCell>
                <mxCell id="SXtA1OtQDqH__FQEsR0t-4" value="品牌无形资产C1" style="shape=partialRectangle;html=1;whiteSpace=wrap;connectable=0;fillColor=none;top=0;left=0;bottom=0;right=0;overflow=hidden;" vertex="1" parent="SXtA1OtQDqH__FQEsR0t-2">
                    <mxGeometry x="85" width="85" height="57" as="geometry">
                        <mxRectangle width="85" height="57" as="alternateBounds"/>
                    </mxGeometry>
                </mxCell>
                <mxCell id="SXtA1OtQDqH__FQEsR0t-5" value="特许经营权C2" style="shape=partialRectangle;html=1;whiteSpace=wrap;connectable=0;fillColor=none;top=0;left=0;bottom=0;right=0;overflow=hidden;" vertex="1" parent="SXtA1OtQDqH__FQEsR0t-2">
                    <mxGeometry x="170" width="85" height="57" as="geometry">
                        <mxRectangle width="85" height="57" as="alternateBounds"/>
                    </mxGeometry>
                </mxCell>
                <mxCell id="SXtA1OtQDqH__FQEsR0t-6" value="研发水平C3" style="shape=partialRectangle;html=1;whiteSpace=wrap;connectable=0;fillColor=none;top=0;left=0;bottom=0;right=0;overflow=hidden;" vertex="1" parent="SXtA1OtQDqH__FQEsR0t-2">
                    <mxGeometry x="255" width="85" height="57" as="geometry">
                        <mxRectangle width="85" height="57" as="alternateBounds"/>
                    </mxGeometry>
                </mxCell>
                <mxCell id="SXtA1OtQDqH__FQEsR0t-7" value="客户关系C4" style="shape=partialRectangle;html=1;whiteSpace=wrap;connectable=0;fillColor=none;top=0;left=0;bottom=0;right=0;overflow=hidden;" vertex="1" parent="SXtA1OtQDqH__FQEsR0t-2">
                    <mxGeometry x="340" width="85" height="57" as="geometry">
                        <mxRectangle width="85" height="57" as="alternateBounds"/>
                    </mxGeometry>
                </mxCell>
                <mxCell id="SXtA1OtQDqH__FQEsR0t-8" value="" style="shape=tableRow;horizontal=0;startSize=0;swimlaneHead=0;swimlaneBody=0;top=0;left=0;bottom=0;right=0;collapsible=0;dropTarget=0;fillColor=none;points=[[0,0.5],[1,0.5]];portConstraint=eastwest;" vertex="1" parent="SXtA1OtQDqH__FQEsR0t-1">
                    <mxGeometry y="57" width="425" height="56" as="geometry"/>
                </mxCell>
                <mxCell id="SXtA1OtQDqH__FQEsR0t-9" value="&#10;&lt;span style=&quot;color: rgb(240, 240, 240); font-family: Helvetica; font-size: 12px; font-style: normal; font-variant-ligatures: normal; font-variant-caps: normal; font-weight: 400; letter-spacing: normal; orphans: 2; text-align: center; text-indent: 0px; text-transform: none; widows: 2; word-spacing: 0px; -webkit-text-stroke-width: 0px; background-color: rgb(42, 37, 47); text-decoration-thickness: initial; text-decoration-style: initial; text-decoration-color: initial; float: none; display: inline !important;&quot;&gt;品牌无形资产C1&lt;/span&gt;&#10;&#10;" style="shape=partialRectangle;html=1;whiteSpace=wrap;connectable=0;fillColor=none;top=0;left=0;bottom=0;right=0;overflow=hidden;" vertex="1" parent="SXtA1OtQDqH__FQEsR0t-8">
                    <mxGeometry width="85" height="56" as="geometry">
                        <mxRectangle width="85" height="56" as="alternateBounds"/>
                    </mxGeometry>
                </mxCell>
                <mxCell id="SXtA1OtQDqH__FQEsR0t-10" value="1" style="shape=partialRectangle;html=1;whiteSpace=wrap;connectable=0;fillColor=none;top=0;left=0;bottom=0;right=0;overflow=hidden;" vertex="1" parent="SXtA1OtQDqH__FQEsR0t-8">
                    <mxGeometry x="85" width="85" height="56" as="geometry">
                        <mxRectangle width="85" height="56" as="alternateBounds"/>
                    </mxGeometry>
                </mxCell>
                <mxCell id="SXtA1OtQDqH__FQEsR0t-11" value="1/6" style="shape=partialRectangle;html=1;whiteSpace=wrap;connectable=0;fillColor=none;top=0;left=0;bottom=0;right=0;overflow=hidden;" vertex="1" parent="SXtA1OtQDqH__FQEsR0t-8">
                    <mxGeometry x="170" width="85" height="56" as="geometry">
                        <mxRectangle width="85" height="56" as="alternateBounds"/>
                    </mxGeometry>
                </mxCell>
                <mxCell id="SXtA1OtQDqH__FQEsR0t-12" value="1/5" style="shape=partialRectangle;html=1;whiteSpace=wrap;connectable=0;fillColor=none;top=0;left=0;bottom=0;right=0;overflow=hidden;" vertex="1" parent="SXtA1OtQDqH__FQEsR0t-8">
                    <mxGeometry x="255" width="85" height="56" as="geometry">
                        <mxRectangle width="85" height="56" as="alternateBounds"/>
                    </mxGeometry>
                </mxCell>
                <mxCell id="SXtA1OtQDqH__FQEsR0t-13" value="1/2" style="shape=partialRectangle;html=1;whiteSpace=wrap;connectable=0;fillColor=none;top=0;left=0;bottom=0;right=0;overflow=hidden;" vertex="1" parent="SXtA1OtQDqH__FQEsR0t-8">
                    <mxGeometry x="340" width="85" height="56" as="geometry">
                        <mxRectangle width="85" height="56" as="alternateBounds"/>
                    </mxGeometry>
                </mxCell>
                <mxCell id="SXtA1OtQDqH__FQEsR0t-14" style="shape=tableRow;horizontal=0;startSize=0;swimlaneHead=0;swimlaneBody=0;top=0;left=0;bottom=0;right=0;collapsible=0;dropTarget=0;fillColor=none;points=[[0,0.5],[1,0.5]];portConstraint=eastwest;" vertex="1" parent="SXtA1OtQDqH__FQEsR0t-1">
                    <mxGeometry y="113" width="425" height="57" as="geometry"/>
                </mxCell>
                <mxCell id="SXtA1OtQDqH__FQEsR0t-15" value="特许经营权C2" style="shape=partialRectangle;html=1;whiteSpace=wrap;connectable=0;fillColor=none;top=0;left=0;bottom=0;right=0;overflow=hidden;" vertex="1" parent="SXtA1OtQDqH__FQEsR0t-14">
                    <mxGeometry width="85" height="57" as="geometry">
                        <mxRectangle width="85" height="57" as="alternateBounds"/>
                    </mxGeometry>
                </mxCell>
                <mxCell id="SXtA1OtQDqH__FQEsR0t-16" value="6" style="shape=partialRectangle;html=1;whiteSpace=wrap;connectable=0;fillColor=none;top=0;left=0;bottom=0;right=0;overflow=hidden;" vertex="1" parent="SXtA1OtQDqH__FQEsR0t-14">
                    <mxGeometry x="85" width="85" height="57" as="geometry">
                        <mxRectangle width="85" height="57" as="alternateBounds"/>
                    </mxGeometry>
                </mxCell>
                <mxCell id="SXtA1OtQDqH__FQEsR0t-17" value="1" style="shape=partialRectangle;html=1;whiteSpace=wrap;connectable=0;fillColor=none;top=0;left=0;bottom=0;right=0;overflow=hidden;" vertex="1" parent="SXtA1OtQDqH__FQEsR0t-14">
                    <mxGeometry x="170" width="85" height="57" as="geometry">
                        <mxRectangle width="85" height="57" as="alternateBounds"/>
                    </mxGeometry>
                </mxCell>
                <mxCell id="SXtA1OtQDqH__FQEsR0t-18" value="2" style="shape=partialRectangle;html=1;whiteSpace=wrap;connectable=0;fillColor=none;top=0;left=0;bottom=0;right=0;overflow=hidden;" vertex="1" parent="SXtA1OtQDqH__FQEsR0t-14">
                    <mxGeometry x="255" width="85" height="57" as="geometry">
                        <mxRectangle width="85" height="57" as="alternateBounds"/>
                    </mxGeometry>
                </mxCell>
                <mxCell id="SXtA1OtQDqH__FQEsR0t-19" value="3" style="shape=partialRectangle;html=1;whiteSpace=wrap;connectable=0;fillColor=none;top=0;left=0;bottom=0;right=0;overflow=hidden;pointerEvents=1;" vertex="1" parent="SXtA1OtQDqH__FQEsR0t-14">
                    <mxGeometry x="340" width="85" height="57" as="geometry">
                        <mxRectangle width="85" height="57" as="alternateBounds"/>
                    </mxGeometry>
                </mxCell>
                <mxCell id="SXtA1OtQDqH__FQEsR0t-20" value="" style="shape=tableRow;horizontal=0;startSize=0;swimlaneHead=0;swimlaneBody=0;top=0;left=0;bottom=0;right=0;collapsible=0;dropTarget=0;fillColor=none;points=[[0,0.5],[1,0.5]];portConstraint=eastwest;" vertex="1" parent="SXtA1OtQDqH__FQEsR0t-1">
                    <mxGeometry y="170" width="425" height="57" as="geometry"/>
                </mxCell>
                <mxCell id="SXtA1OtQDqH__FQEsR0t-21" value="研发水平C3" style="shape=partialRectangle;html=1;whiteSpace=wrap;connectable=0;fillColor=none;top=0;left=0;bottom=0;right=0;overflow=hidden;" vertex="1" parent="SXtA1OtQDqH__FQEsR0t-20">
                    <mxGeometry width="85" height="57" as="geometry">
                        <mxRectangle width="85" height="57" as="alternateBounds"/>
                    </mxGeometry>
                </mxCell>
                <mxCell id="SXtA1OtQDqH__FQEsR0t-22" value="5" style="shape=partialRectangle;html=1;whiteSpace=wrap;connectable=0;fillColor=none;top=0;left=0;bottom=0;right=0;overflow=hidden;" vertex="1" parent="SXtA1OtQDqH__FQEsR0t-20">
                    <mxGeometry x="85" width="85" height="57" as="geometry">
                        <mxRectangle width="85" height="57" as="alternateBounds"/>
                    </mxGeometry>
                </mxCell>
                <mxCell id="SXtA1OtQDqH__FQEsR0t-23" value="1/2" style="shape=partialRectangle;html=1;whiteSpace=wrap;connectable=0;fillColor=none;top=0;left=0;bottom=0;right=0;overflow=hidden;" vertex="1" parent="SXtA1OtQDqH__FQEsR0t-20">
                    <mxGeometry x="170" width="85" height="57" as="geometry">
                        <mxRectangle width="85" height="57" as="alternateBounds"/>
                    </mxGeometry>
                </mxCell>
                <mxCell id="SXtA1OtQDqH__FQEsR0t-24" value="1" style="shape=partialRectangle;html=1;whiteSpace=wrap;connectable=0;fillColor=none;top=0;left=0;bottom=0;right=0;overflow=hidden;" vertex="1" parent="SXtA1OtQDqH__FQEsR0t-20">
                    <mxGeometry x="255" width="85" height="57" as="geometry">
                        <mxRectangle width="85" height="57" as="alternateBounds"/>
                    </mxGeometry>
                </mxCell>
                <mxCell id="SXtA1OtQDqH__FQEsR0t-25" value="2" style="shape=partialRectangle;html=1;whiteSpace=wrap;connectable=0;fillColor=none;top=0;left=0;bottom=0;right=0;overflow=hidden;pointerEvents=1;" vertex="1" parent="SXtA1OtQDqH__FQEsR0t-20">
                    <mxGeometry x="340" width="85" height="57" as="geometry">
                        <mxRectangle width="85" height="57" as="alternateBounds"/>
                    </mxGeometry>
                </mxCell>
                <mxCell id="SXtA1OtQDqH__FQEsR0t-26" style="shape=tableRow;horizontal=0;startSize=0;swimlaneHead=0;swimlaneBody=0;top=0;left=0;bottom=0;right=0;collapsible=0;dropTarget=0;fillColor=none;points=[[0,0.5],[1,0.5]];portConstraint=eastwest;" vertex="1" parent="SXtA1OtQDqH__FQEsR0t-1">
                    <mxGeometry y="227" width="425" height="57" as="geometry"/>
                </mxCell>
                <mxCell id="SXtA1OtQDqH__FQEsR0t-27" value="客户关系C4" style="shape=partialRectangle;html=1;whiteSpace=wrap;connectable=0;fillColor=none;top=0;left=0;bottom=0;right=0;overflow=hidden;" vertex="1" parent="SXtA1OtQDqH__FQEsR0t-26">
                    <mxGeometry width="85" height="57" as="geometry">
                        <mxRectangle width="85" height="57" as="alternateBounds"/>
                    </mxGeometry>
                </mxCell>
                <mxCell id="SXtA1OtQDqH__FQEsR0t-28" value="2" style="shape=partialRectangle;html=1;whiteSpace=wrap;connectable=0;fillColor=none;top=0;left=0;bottom=0;right=0;overflow=hidden;" vertex="1" parent="SXtA1OtQDqH__FQEsR0t-26">
                    <mxGeometry x="85" width="85" height="57" as="geometry">
                        <mxRectangle width="85" height="57" as="alternateBounds"/>
                    </mxGeometry>
                </mxCell>
                <mxCell id="SXtA1OtQDqH__FQEsR0t-29" value="1/3" style="shape=partialRectangle;html=1;whiteSpace=wrap;connectable=0;fillColor=none;top=0;left=0;bottom=0;right=0;overflow=hidden;" vertex="1" parent="SXtA1OtQDqH__FQEsR0t-26">
                    <mxGeometry x="170" width="85" height="57" as="geometry">
                        <mxRectangle width="85" height="57" as="alternateBounds"/>
                    </mxGeometry>
                </mxCell>
                <mxCell id="SXtA1OtQDqH__FQEsR0t-30" value="1/2" style="shape=partialRectangle;html=1;whiteSpace=wrap;connectable=0;fillColor=none;top=0;left=0;bottom=0;right=0;overflow=hidden;" vertex="1" parent="SXtA1OtQDqH__FQEsR0t-26">
                    <mxGeometry x="255" width="85" height="57" as="geometry">
                        <mxRectangle width="85" height="57" as="alternateBounds"/>
                    </mxGeometry>
                </mxCell>
                <mxCell id="SXtA1OtQDqH__FQEsR0t-31" value="1" style="shape=partialRectangle;html=1;whiteSpace=wrap;connectable=0;fillColor=none;top=0;left=0;bottom=0;right=0;overflow=hidden;pointerEvents=1;" vertex="1" parent="SXtA1OtQDqH__FQEsR0t-26">
                    <mxGeometry x="340" width="85" height="57" as="geometry">
                        <mxRectangle width="85" height="57" as="alternateBounds"/>
                    </mxGeometry>
                </mxCell>
            </root>
        </mxGraphModel>
    </diagram>
    <diagram id="8JX4pfylW7Hbha5ffs6C" name="准则与实施3">
        <mxGraphModel dx="478" dy="388" grid="1" gridSize="10" guides="1" tooltips="1" connect="1" arrows="1" fold="1" page="1" pageScale="1" pageWidth="827" pageHeight="1169" math="0" shadow="0">
            <root>
                <mxCell id="0"/>
                <mxCell id="1" parent="0"/>
                <mxCell id="XIfm9rmnKhJ6AH0l-a6u-1" value="" style="shape=table;html=1;whiteSpace=wrap;startSize=0;container=1;collapsible=0;childLayout=tableLayout;fillColor=none;" vertex="1" parent="1">
                    <mxGeometry x="150" y="120" width="425" height="283.66999999999996" as="geometry"/>
                </mxCell>
                <mxCell id="XIfm9rmnKhJ6AH0l-a6u-2" value="" style="shape=tableRow;horizontal=0;startSize=0;swimlaneHead=0;swimlaneBody=0;top=0;left=0;bottom=0;right=0;collapsible=0;dropTarget=0;fillColor=none;points=[[0,0.5],[1,0.5]];portConstraint=eastwest;" vertex="1" parent="XIfm9rmnKhJ6AH0l-a6u-1">
                    <mxGeometry width="425" height="57" as="geometry"/>
                </mxCell>
                <mxCell id="XIfm9rmnKhJ6AH0l-a6u-3" value="销量增长B3" style="shape=partialRectangle;html=1;whiteSpace=wrap;connectable=0;fillColor=none;top=0;left=0;bottom=0;right=0;overflow=hidden;" vertex="1" parent="XIfm9rmnKhJ6AH0l-a6u-2">
                    <mxGeometry width="85" height="57" as="geometry">
                        <mxRectangle width="85" height="57" as="alternateBounds"/>
                    </mxGeometry>
                </mxCell>
                <mxCell id="XIfm9rmnKhJ6AH0l-a6u-4" value="品牌无形资产C1" style="shape=partialRectangle;html=1;whiteSpace=wrap;connectable=0;fillColor=none;top=0;left=0;bottom=0;right=0;overflow=hidden;" vertex="1" parent="XIfm9rmnKhJ6AH0l-a6u-2">
                    <mxGeometry x="85" width="85" height="57" as="geometry">
                        <mxRectangle width="85" height="57" as="alternateBounds"/>
                    </mxGeometry>
                </mxCell>
                <mxCell id="XIfm9rmnKhJ6AH0l-a6u-5" value="特许经营权C2" style="shape=partialRectangle;html=1;whiteSpace=wrap;connectable=0;fillColor=none;top=0;left=0;bottom=0;right=0;overflow=hidden;" vertex="1" parent="XIfm9rmnKhJ6AH0l-a6u-2">
                    <mxGeometry x="170" width="85" height="57" as="geometry">
                        <mxRectangle width="85" height="57" as="alternateBounds"/>
                    </mxGeometry>
                </mxCell>
                <mxCell id="XIfm9rmnKhJ6AH0l-a6u-6" value="研发水平C3" style="shape=partialRectangle;html=1;whiteSpace=wrap;connectable=0;fillColor=none;top=0;left=0;bottom=0;right=0;overflow=hidden;" vertex="1" parent="XIfm9rmnKhJ6AH0l-a6u-2">
                    <mxGeometry x="255" width="85" height="57" as="geometry">
                        <mxRectangle width="85" height="57" as="alternateBounds"/>
                    </mxGeometry>
                </mxCell>
                <mxCell id="XIfm9rmnKhJ6AH0l-a6u-7" value="客户关系C4" style="shape=partialRectangle;html=1;whiteSpace=wrap;connectable=0;fillColor=none;top=0;left=0;bottom=0;right=0;overflow=hidden;" vertex="1" parent="XIfm9rmnKhJ6AH0l-a6u-2">
                    <mxGeometry x="340" width="85" height="57" as="geometry">
                        <mxRectangle width="85" height="57" as="alternateBounds"/>
                    </mxGeometry>
                </mxCell>
                <mxCell id="XIfm9rmnKhJ6AH0l-a6u-8" value="" style="shape=tableRow;horizontal=0;startSize=0;swimlaneHead=0;swimlaneBody=0;top=0;left=0;bottom=0;right=0;collapsible=0;dropTarget=0;fillColor=none;points=[[0,0.5],[1,0.5]];portConstraint=eastwest;" vertex="1" parent="XIfm9rmnKhJ6AH0l-a6u-1">
                    <mxGeometry y="57" width="425" height="56" as="geometry"/>
                </mxCell>
                <mxCell id="XIfm9rmnKhJ6AH0l-a6u-9" value="&#10;&lt;span style=&quot;color: rgb(240, 240, 240); font-family: Helvetica; font-size: 12px; font-style: normal; font-variant-ligatures: normal; font-variant-caps: normal; font-weight: 400; letter-spacing: normal; orphans: 2; text-align: center; text-indent: 0px; text-transform: none; widows: 2; word-spacing: 0px; -webkit-text-stroke-width: 0px; background-color: rgb(42, 37, 47); text-decoration-thickness: initial; text-decoration-style: initial; text-decoration-color: initial; float: none; display: inline !important;&quot;&gt;品牌无形资产C1&lt;/span&gt;&#10;&#10;" style="shape=partialRectangle;html=1;whiteSpace=wrap;connectable=0;fillColor=none;top=0;left=0;bottom=0;right=0;overflow=hidden;" vertex="1" parent="XIfm9rmnKhJ6AH0l-a6u-8">
                    <mxGeometry width="85" height="56" as="geometry">
                        <mxRectangle width="85" height="56" as="alternateBounds"/>
                    </mxGeometry>
                </mxCell>
                <mxCell id="XIfm9rmnKhJ6AH0l-a6u-10" value="1" style="shape=partialRectangle;html=1;whiteSpace=wrap;connectable=0;fillColor=none;top=0;left=0;bottom=0;right=0;overflow=hidden;" vertex="1" parent="XIfm9rmnKhJ6AH0l-a6u-8">
                    <mxGeometry x="85" width="85" height="56" as="geometry">
                        <mxRectangle width="85" height="56" as="alternateBounds"/>
                    </mxGeometry>
                </mxCell>
                <mxCell id="XIfm9rmnKhJ6AH0l-a6u-11" value="2" style="shape=partialRectangle;html=1;whiteSpace=wrap;connectable=0;fillColor=none;top=0;left=0;bottom=0;right=0;overflow=hidden;" vertex="1" parent="XIfm9rmnKhJ6AH0l-a6u-8">
                    <mxGeometry x="170" width="85" height="56" as="geometry">
                        <mxRectangle width="85" height="56" as="alternateBounds"/>
                    </mxGeometry>
                </mxCell>
                <mxCell id="XIfm9rmnKhJ6AH0l-a6u-12" value="5" style="shape=partialRectangle;html=1;whiteSpace=wrap;connectable=0;fillColor=none;top=0;left=0;bottom=0;right=0;overflow=hidden;" vertex="1" parent="XIfm9rmnKhJ6AH0l-a6u-8">
                    <mxGeometry x="255" width="85" height="56" as="geometry">
                        <mxRectangle width="85" height="56" as="alternateBounds"/>
                    </mxGeometry>
                </mxCell>
                <mxCell id="XIfm9rmnKhJ6AH0l-a6u-13" value="2" style="shape=partialRectangle;html=1;whiteSpace=wrap;connectable=0;fillColor=none;top=0;left=0;bottom=0;right=0;overflow=hidden;" vertex="1" parent="XIfm9rmnKhJ6AH0l-a6u-8">
                    <mxGeometry x="340" width="85" height="56" as="geometry">
                        <mxRectangle width="85" height="56" as="alternateBounds"/>
                    </mxGeometry>
                </mxCell>
                <mxCell id="XIfm9rmnKhJ6AH0l-a6u-14" style="shape=tableRow;horizontal=0;startSize=0;swimlaneHead=0;swimlaneBody=0;top=0;left=0;bottom=0;right=0;collapsible=0;dropTarget=0;fillColor=none;points=[[0,0.5],[1,0.5]];portConstraint=eastwest;" vertex="1" parent="XIfm9rmnKhJ6AH0l-a6u-1">
                    <mxGeometry y="113" width="425" height="57" as="geometry"/>
                </mxCell>
                <mxCell id="XIfm9rmnKhJ6AH0l-a6u-15" value="特许经营权C2" style="shape=partialRectangle;html=1;whiteSpace=wrap;connectable=0;fillColor=none;top=0;left=0;bottom=0;right=0;overflow=hidden;" vertex="1" parent="XIfm9rmnKhJ6AH0l-a6u-14">
                    <mxGeometry width="85" height="57" as="geometry">
                        <mxRectangle width="85" height="57" as="alternateBounds"/>
                    </mxGeometry>
                </mxCell>
                <mxCell id="XIfm9rmnKhJ6AH0l-a6u-16" value="1/2" style="shape=partialRectangle;html=1;whiteSpace=wrap;connectable=0;fillColor=none;top=0;left=0;bottom=0;right=0;overflow=hidden;" vertex="1" parent="XIfm9rmnKhJ6AH0l-a6u-14">
                    <mxGeometry x="85" width="85" height="57" as="geometry">
                        <mxRectangle width="85" height="57" as="alternateBounds"/>
                    </mxGeometry>
                </mxCell>
                <mxCell id="XIfm9rmnKhJ6AH0l-a6u-17" value="1" style="shape=partialRectangle;html=1;whiteSpace=wrap;connectable=0;fillColor=none;top=0;left=0;bottom=0;right=0;overflow=hidden;" vertex="1" parent="XIfm9rmnKhJ6AH0l-a6u-14">
                    <mxGeometry x="170" width="85" height="57" as="geometry">
                        <mxRectangle width="85" height="57" as="alternateBounds"/>
                    </mxGeometry>
                </mxCell>
                <mxCell id="XIfm9rmnKhJ6AH0l-a6u-18" value="3" style="shape=partialRectangle;html=1;whiteSpace=wrap;connectable=0;fillColor=none;top=0;left=0;bottom=0;right=0;overflow=hidden;" vertex="1" parent="XIfm9rmnKhJ6AH0l-a6u-14">
                    <mxGeometry x="255" width="85" height="57" as="geometry">
                        <mxRectangle width="85" height="57" as="alternateBounds"/>
                    </mxGeometry>
                </mxCell>
                <mxCell id="XIfm9rmnKhJ6AH0l-a6u-19" value="1" style="shape=partialRectangle;html=1;whiteSpace=wrap;connectable=0;fillColor=none;top=0;left=0;bottom=0;right=0;overflow=hidden;pointerEvents=1;" vertex="1" parent="XIfm9rmnKhJ6AH0l-a6u-14">
                    <mxGeometry x="340" width="85" height="57" as="geometry">
                        <mxRectangle width="85" height="57" as="alternateBounds"/>
                    </mxGeometry>
                </mxCell>
                <mxCell id="XIfm9rmnKhJ6AH0l-a6u-20" value="" style="shape=tableRow;horizontal=0;startSize=0;swimlaneHead=0;swimlaneBody=0;top=0;left=0;bottom=0;right=0;collapsible=0;dropTarget=0;fillColor=none;points=[[0,0.5],[1,0.5]];portConstraint=eastwest;" vertex="1" parent="XIfm9rmnKhJ6AH0l-a6u-1">
                    <mxGeometry y="170" width="425" height="57" as="geometry"/>
                </mxCell>
                <mxCell id="XIfm9rmnKhJ6AH0l-a6u-21" value="研发水平C3" style="shape=partialRectangle;html=1;whiteSpace=wrap;connectable=0;fillColor=none;top=0;left=0;bottom=0;right=0;overflow=hidden;" vertex="1" parent="XIfm9rmnKhJ6AH0l-a6u-20">
                    <mxGeometry width="85" height="57" as="geometry">
                        <mxRectangle width="85" height="57" as="alternateBounds"/>
                    </mxGeometry>
                </mxCell>
                <mxCell id="XIfm9rmnKhJ6AH0l-a6u-22" value="1/5" style="shape=partialRectangle;html=1;whiteSpace=wrap;connectable=0;fillColor=none;top=0;left=0;bottom=0;right=0;overflow=hidden;" vertex="1" parent="XIfm9rmnKhJ6AH0l-a6u-20">
                    <mxGeometry x="85" width="85" height="57" as="geometry">
                        <mxRectangle width="85" height="57" as="alternateBounds"/>
                    </mxGeometry>
                </mxCell>
                <mxCell id="XIfm9rmnKhJ6AH0l-a6u-23" value="1/3" style="shape=partialRectangle;html=1;whiteSpace=wrap;connectable=0;fillColor=none;top=0;left=0;bottom=0;right=0;overflow=hidden;" vertex="1" parent="XIfm9rmnKhJ6AH0l-a6u-20">
                    <mxGeometry x="170" width="85" height="57" as="geometry">
                        <mxRectangle width="85" height="57" as="alternateBounds"/>
                    </mxGeometry>
                </mxCell>
                <mxCell id="XIfm9rmnKhJ6AH0l-a6u-24" value="1" style="shape=partialRectangle;html=1;whiteSpace=wrap;connectable=0;fillColor=none;top=0;left=0;bottom=0;right=0;overflow=hidden;" vertex="1" parent="XIfm9rmnKhJ6AH0l-a6u-20">
                    <mxGeometry x="255" width="85" height="57" as="geometry">
                        <mxRectangle width="85" height="57" as="alternateBounds"/>
                    </mxGeometry>
                </mxCell>
                <mxCell id="XIfm9rmnKhJ6AH0l-a6u-25" value="1/3" style="shape=partialRectangle;html=1;whiteSpace=wrap;connectable=0;fillColor=none;top=0;left=0;bottom=0;right=0;overflow=hidden;pointerEvents=1;" vertex="1" parent="XIfm9rmnKhJ6AH0l-a6u-20">
                    <mxGeometry x="340" width="85" height="57" as="geometry">
                        <mxRectangle width="85" height="57" as="alternateBounds"/>
                    </mxGeometry>
                </mxCell>
                <mxCell id="XIfm9rmnKhJ6AH0l-a6u-26" style="shape=tableRow;horizontal=0;startSize=0;swimlaneHead=0;swimlaneBody=0;top=0;left=0;bottom=0;right=0;collapsible=0;dropTarget=0;fillColor=none;points=[[0,0.5],[1,0.5]];portConstraint=eastwest;" vertex="1" parent="XIfm9rmnKhJ6AH0l-a6u-1">
                    <mxGeometry y="227" width="425" height="57" as="geometry"/>
                </mxCell>
                <mxCell id="XIfm9rmnKhJ6AH0l-a6u-27" value="客户关系C4" style="shape=partialRectangle;html=1;whiteSpace=wrap;connectable=0;fillColor=none;top=0;left=0;bottom=0;right=0;overflow=hidden;" vertex="1" parent="XIfm9rmnKhJ6AH0l-a6u-26">
                    <mxGeometry width="85" height="57" as="geometry">
                        <mxRectangle width="85" height="57" as="alternateBounds"/>
                    </mxGeometry>
                </mxCell>
                <mxCell id="XIfm9rmnKhJ6AH0l-a6u-28" value="1/2" style="shape=partialRectangle;html=1;whiteSpace=wrap;connectable=0;fillColor=none;top=0;left=0;bottom=0;right=0;overflow=hidden;" vertex="1" parent="XIfm9rmnKhJ6AH0l-a6u-26">
                    <mxGeometry x="85" width="85" height="57" as="geometry">
                        <mxRectangle width="85" height="57" as="alternateBounds"/>
                    </mxGeometry>
                </mxCell>
                <mxCell id="XIfm9rmnKhJ6AH0l-a6u-29" value="1" style="shape=partialRectangle;html=1;whiteSpace=wrap;connectable=0;fillColor=none;top=0;left=0;bottom=0;right=0;overflow=hidden;" vertex="1" parent="XIfm9rmnKhJ6AH0l-a6u-26">
                    <mxGeometry x="170" width="85" height="57" as="geometry">
                        <mxRectangle width="85" height="57" as="alternateBounds"/>
                    </mxGeometry>
                </mxCell>
                <mxCell id="XIfm9rmnKhJ6AH0l-a6u-30" value="3" style="shape=partialRectangle;html=1;whiteSpace=wrap;connectable=0;fillColor=none;top=0;left=0;bottom=0;right=0;overflow=hidden;" vertex="1" parent="XIfm9rmnKhJ6AH0l-a6u-26">
                    <mxGeometry x="255" width="85" height="57" as="geometry">
                        <mxRectangle width="85" height="57" as="alternateBounds"/>
                    </mxGeometry>
                </mxCell>
                <mxCell id="XIfm9rmnKhJ6AH0l-a6u-31" value="1" style="shape=partialRectangle;html=1;whiteSpace=wrap;connectable=0;fillColor=none;top=0;left=0;bottom=0;right=0;overflow=hidden;pointerEvents=1;" vertex="1" parent="XIfm9rmnKhJ6AH0l-a6u-26">
                    <mxGeometry x="340" width="85" height="57" as="geometry">
                        <mxRectangle width="85" height="57" as="alternateBounds"/>
                    </mxGeometry>
                </mxCell>
            </root>
        </mxGraphModel>
    </diagram>
</mxfile>